# xmcd CD database file
#
# Track frame offsets:
#	150
#	13142
#	33991
#
# Disc length: 562 seconds
#
# Revision: 0
# Processed by: cddbd v1.5.1PL2 Copyright (c) Steve Scherf et al.
# Submitted via: CDex 1.51
#
DISCID=1b023003
DTITLE=ゲントウキ - ハイカラ
DYEAR=2001
DGENRE=Rock
TTITLE0=ハイカラ
TTITLE1=南半球
TTITLE2=七色飛行機
EXTD=YEAR: 2001
EXTT0=
EXTT1=
EXTT2=
PLAYORDER=
